<?xml version="1.0" standalone="no"?><!DOCTYPE svg PUBLIC "-//W3C//DTD SVG 1.1//EN" "http://www.w3.org/Graphics/SVG/1.1/DTD/svg11.dtd"><svg t="1605863770326" class="icon" viewBox="0 0 1024 1024" version="1.1" xmlns="http://www.w3.org/2000/svg" p-id="28905" data-spm-anchor-id="a313x.7781069.0.i15" xmlns:xlink="http://www.w3.org/1999/xlink" width="200" height="200"><defs><style type="text/css"></style></defs><path d="M859.024 928.488H163.158c-54.661 0-98.98-44.315-98.98-98.974V302.007l-0.299 0.196s0.092-21.917 0.179-47.236c-0.016-2.837-0.016-5.424 0.026-7.768 0.069-20.791 0.128-42.576 0.128-55.689 0-47.845 36.012-93.021 89.576-93.021h549.133c47.846 0 97.53 31.672 97.53 93.021 0 12.746 0.089 23.539-0.15 32.696h58.724c54.662 0 98.981 44.315 98.981 98.971v506.338c0 54.658-44.319 98.973-98.982 98.973zM738.037 191.425c0-17.915-14.625-32.448-35.116-32.448H160.79c-20.493 0-35.118 14.534-35.118 32.448 0 17.912 14.625 32.447 35.118 32.447h577.247v-32.447z m157.474 320.429H639.057v127.981h256.454V511.854z m0 191.47H625.052c-27.331 0-49.489-17.359-49.489-63.488V497.851c0-27.325 22.158-49.483 49.489-49.483h270.459V337.18c0-27.329-22.159-49.487-49.491-49.487H126.673v527.818c0 27.329 22.159 49.486 49.49 49.486H846.02c27.332 0 49.491-22.157 49.491-49.486V703.324z" p-id="28906" fill="#8a8a8a"></path></svg>