<?xml version="1.0" standalone="no"?><!DOCTYPE svg PUBLIC "-//W3C//DTD SVG 1.1//EN" "http://www.w3.org/Graphics/SVG/1.1/DTD/svg11.dtd"><svg t="1605873730903" class="icon" viewBox="0 0 1024 1024" version="1.1" xmlns="http://www.w3.org/2000/svg" p-id="2841" xmlns:xlink="http://www.w3.org/1999/xlink" width="200" height="200"><defs><style type="text/css"></style></defs><path d="M473 928C232.028 928 36 732.364 36 492c-0.276-176.03 105.798-334.88 268.727-402.422a31.247 31.247 0 0 1 30.935 3.958 31.084 31.084 0 0 1 12.032 28.708 31.127 31.127 0 0 1-18.903 24.75C189.14 204.928 98.238 341.105 98.486 491.999c0 206.11 167.99 373.714 374.571 373.714 151.227 0.258 287.713-90.413 345.797-229.72 7.151-15 24.842-21.76 40.206-15.366 15.364 6.395 22.995 23.694 17.342 39.317C808.7 822.488 649.482 928.3 473.057 927.999h-0.056z m405.786-404.858H473c-17.24 0-31.215-13.943-31.215-31.143V87.143c0-17.2 13.975-31.143 31.215-31.143C713.918 56 910 251.633 910 492c0 17.2-13.975 31.142-31.214 31.142z" fill="#707070" p-id="2842"></path></svg>